<svg id="_0320_super_dad" data-name="0320_super_dad" xmlns="http://www.w3.org/2000/svg" viewBox="0 0 500 500" data-imageid="super-dad-99" imageName="Super Dad" class="illustrations_image" style="width: 201px;"><defs><style>.cls-1_super-dad-99{fill:#d1d3d4;}.cls-2_super-dad-99{fill:#231f20;}.cls-3_super-dad-99{fill:#fff;}.cls-4_super-dad-99{fill:#68e1fd;}</style></defs><g id="Shadow_super-dad-99"><ellipse class="cls-1_super-dad-99" cx="251.27" cy="417.64" rx="111.94" ry="3.9"/></g><g id="Cap_Back_super-dad-99" data-name="Cap Back"><path class="cls-2_super-dad-99" d="M210.6,274.12c7.94.77,15.62,3.28,23.54,4.19s16.6,0,22.62-5.27c5.35-4.66,7.9-12.11,13.77-16.12,8.9-6.09,21-1.76,31.69-2.83,11-1.1,21.84-8.45,27.31-17.86,6.63-11.42,13.62-21.8,23.57-30.66,2.4-2.14,5-4.27,6.34-7.18-1,2.24-29.87-6.37-32.67-7.77-9.17-4.58-18.38-10.76-27.28-16.1-17.87-10.75-35.31-23-55.42-28.55a90.4,90.4,0,0,0-41.53-1.49c-11,2.2-22.17,6.92-28.66,16.08C164.41,174,169,189,169,204a193.71,193.71,0,0,1-6.3,48.81c-1.82,6.95-4.13,14-8.65,19.57,12.79,9.1,25,6.26,38.93,3A54,54,0,0,1,210.6,274.12Z"/><path class="cls-2_super-dad-99" d="M239.37,279.32a46.16,46.16,0,0,1-5.31-.31c-3.82-.44-7.63-1.26-11.32-2.06a110.08,110.08,0,0,0-12.21-2.14A53.55,53.55,0,0,0,193.11,276c-13.56,3.22-26.37,6.27-39.49-3.07a.7.7,0,0,1-.14-1c4.49-5.55,6.74-12.56,8.51-19.31A192.79,192.79,0,0,0,168.28,204c0-3.7-.28-7.47-.55-11.11-.83-11-1.69-22.46,5.58-32.73s19.79-14.51,29.1-16.36a91.1,91.1,0,0,1,41.85,1.5c16.66,4.59,31.67,13.88,46.19,22.86,3.13,1.94,6.26,3.87,9.4,5.76,2.57,1.54,5.16,3.16,7.78,4.78,6.36,4,12.95,8.05,19.45,11.3a166.9,166.9,0,0,0,16.13,5c13.07,3.52,15.34,3.11,15.67,3a.71.71,0,0,1,.86-.23.71.71,0,0,1,.34.93c-1.31,2.8-3.65,4.87-5.91,6.87l-.61.54c-10.41,9.27-17.41,20.13-23.42,30.49-5.69,9.79-16.88,17.1-27.85,18.2a69.34,69.34,0,0,1-11.43-.16c-7.34-.51-14.28-1-19.94,2.88-3.1,2.11-5.21,5.19-7.46,8.44a39.35,39.35,0,0,1-6.25,7.63C252.05,278.06,245.3,279.32,239.37,279.32Zm-33.91-6.14c1.74,0,3.47.08,5.21.25h0A107.07,107.07,0,0,1,223,275.59c3.65.79,7.43,1.6,11.19,2,6.53.75,15.66.48,22.08-5.1a38.76,38.76,0,0,0,6-7.37c2.21-3.22,4.5-6.54,7.81-8.81,6.06-4.14,13.57-3.62,20.83-3.11a67.61,67.61,0,0,0,11.19.16c10.54-1,21.31-8.09,26.78-17.51,6.07-10.46,13.15-21.43,23.71-30.83l.61-.55a26.73,26.73,0,0,0,4.81-5.06c-6.59,0-29.67-7.23-31.6-8.19-6.56-3.28-13.17-7.39-19.57-11.37-2.6-1.62-5.19-3.22-7.76-4.76-3.14-1.9-6.28-3.84-9.41-5.78-14.44-8.92-29.36-18.16-45.83-22.7a89.85,89.85,0,0,0-41.21-1.48c-9.06,1.81-21.3,6-28.23,15.81s-6.18,20.52-5.33,31.81c.27,3.67.55,7.47.55,11.23a194.11,194.11,0,0,1-6.33,49c-1.75,6.67-4,13.6-8.31,19.25,12.38,8.46,24.16,5.67,37.76,2.44A54.36,54.36,0,0,1,205.46,273.18Z"/></g><g id="Daughter_super-dad-99"><polygon class="cls-3_super-dad-99" points="290.62 358.98 292.19 410.59 301.89 410.59 307.72 358.98 290.62 358.98"/><path class="cls-2_super-dad-99" d="M301.89,411.29h-9.7a.7.7,0,0,1-.7-.67L289.92,359a.73.73,0,0,1,.2-.51.68.68,0,0,1,.5-.22h17.1a.7.7,0,0,1,.69.78l-5.82,51.61A.7.7,0,0,1,301.89,411.29Zm-9-1.4h8.4l5.66-50.21H291.34Z"/><path class="cls-2_super-dad-99" d="M301.89,410.59v5.16s-21.12,1.35-20.94.12,11.24-5.28,11.24-5.28Z"/><path class="cls-2_super-dad-99" d="M286.51,417.08c-3.27,0-5.61-.17-6-.64a1,1,0,0,1-.21-.67c.06-.41.23-1.64,11.69-5.83a.67.67,0,0,1,.24,0h9.7a.69.69,0,0,1,.7.69v5.16a.69.69,0,0,1-.65.69C296.69,416.78,290.8,417.08,286.51,417.08Zm-4.92-1Zm.7-.53c2.79.27,11.11,0,18.9-.49v-3.8h-8.88A81.13,81.13,0,0,0,282.29,415.58Z"/><polygon class="cls-3_super-dad-99" points="329.68 361.86 322.88 410.59 313.18 410.59 311.46 358.98 329.68 361.86"/><path class="cls-2_super-dad-99" d="M322.88,411.29h-9.7a.7.7,0,0,1-.7-.67L310.76,359a.71.71,0,0,1,.81-.72l18.22,2.87a.69.69,0,0,1,.58.79l-6.79,48.74A.7.7,0,0,1,322.88,411.29Zm-9-1.4h8.41l6.62-47.45-16.7-2.63Z"/><path class="cls-3_super-dad-99" d="M284.19,277.89a8.08,8.08,0,0,0,.77,3.56,14.81,14.81,0,0,0,13.66,8.62c4.32-.13,8.05-3.95,10.53-7.22,5.67-7.5,6.56-19.17.41-26.69-2.22-2.72-4.1-5.6-7.82-6.3A9.28,9.28,0,0,0,294,252c-2.53,2.2-3.64,5.6-4.32,8.89s-1,6.7-2.48,9.72C285.9,273.36,284.29,275.33,284.19,277.89Z"/><path class="cls-2_super-dad-99" d="M298.22,290.78a15.52,15.52,0,0,1-13.9-9,8.87,8.87,0,0,1-.83-3.87h0a12.24,12.24,0,0,1,2-5.42c.38-.68.78-1.39,1.15-2.17a28.88,28.88,0,0,0,2-7.31c.14-.76.28-1.51.43-2.25.61-3,1.69-6.79,4.54-9.28a9.94,9.94,0,0,1,8.29-2.26c3.54.67,5.54,3.18,7.48,5.6l.75.95c6.06,7.4,5.89,19.25-.39,27.55-3.69,4.87-7.41,7.39-11.06,7.5Zm-13.33-12.87a7.4,7.4,0,0,0,.71,3.25,14.08,14.08,0,0,0,12.62,8.22h.38c3.21-.09,6.57-2.43,10-6.95,5.8-7.67,6-19,.43-25.82l-.77-1c-1.85-2.33-3.61-4.54-6.64-5.1a8.61,8.61,0,0,0-7.11,1.94c-2.54,2.21-3.52,5.7-4.09,8.5q-.23,1.1-.42,2.22a29.6,29.6,0,0,1-2.12,7.66c-.38.81-.79,1.55-1.18,2.25a11.06,11.06,0,0,0-1.8,4.79Z"/><path class="cls-3_super-dad-99" d="M293.36,285.14s-18.53,6.51-21.58,6S259,279.72,259,279.72l1.58,13.36s8.19,8.77,12.65,9.32,25.68-5.65,25.68-5.65Z"/><path class="cls-2_super-dad-99" d="M273.8,303.13a6.77,6.77,0,0,1-.69,0c-4.65-.57-12.73-9.17-13.07-9.53a.73.73,0,0,1-.18-.4l-1.58-13.35a.68.68,0,0,1,.41-.72.68.68,0,0,1,.8.17c3.72,4.15,10.37,10.87,12.41,11.21s13.84-3.4,21.23-6a.68.68,0,0,1,.86.36l5.52,11.61a.68.68,0,0,1,0,.59.7.7,0,0,1-.44.38C298.24,297.66,279.43,303.13,273.8,303.13Zm-12.58-10.36c2.37,2.5,8.7,8.52,12.06,8.93s17.1-3.23,24.62-5.39L293,286c-3.57,1.25-18.4,6.33-21.33,5.85-2.55-.42-8.81-6.88-11.75-10Z"/><path class="cls-4_super-dad-99 targetColor" d="M293.79,282.05s27.28-5,32.67-.33-1.41,43.35-1.41,43.35l-36.35-2.7S283.74,294.8,293.79,282.05Z" style="fill: rgb(104, 225, 253);"/><path class="cls-3_super-dad-99" d="M344.34,337.84c-.06-.33-.11-.63-.15-.88-1.9-11.7-14.55-43.5-17.24-50.28-6.32-6-8.45,8.24-7.31,15.23.94,5.76,13.5,27.74,17.87,36.1,0,0-1.21,6.84-.48,8.08,1.1,1.87,1.77-2.81,1.77-2.81s1.23,10.6,2.87,10.37C347.22,352.87,345.13,342.19,344.34,337.84Z"/><path class="cls-2_super-dad-99" d="M341.62,354.36a1.14,1.14,0,0,1-.72-.27c-1.09-.83-1.88-4.55-2.35-7.51a1.32,1.32,0,0,1-.81.63c-.36.07-.87,0-1.32-.77-.76-1.29,0-6.42.36-8.32-.95-1.82-2.27-4.25-3.77-7C327.39,320.79,319.7,306.63,319,302c-.9-5.54.13-15.2,3.76-17.12,1-.52,2.61-.73,4.72,1.27a.59.59,0,0,1,.17.25c10.06,25.32,16,42.74,17.28,50.43,0,.24.09.54.15.87l.06.34c.71,3.9,2,11.16-.41,14.53a4.18,4.18,0,0,1-2.91,1.75Zm-2.82-11.78h0a.71.71,0,0,1,.69.62c.49,4.2,1.47,9,2.2,9.74a2.84,2.84,0,0,0,1.85-1.16c2.09-2.9.79-10,.17-13.47l-.07-.35h0c-.06-.33-.11-.63-.15-.89-1.22-7.47-7.3-25.22-17.14-50-1.17-1.07-2.18-1.39-3-.95-2.83,1.5-3.86,10.55-3,15.66.71,4.37,8.66,19,13.91,28.66,1.56,2.86,2.93,5.37,3.89,7.23a.67.67,0,0,1,.07.44,32.2,32.2,0,0,0-.65,7.36,11.85,11.85,0,0,0,.56-2.31A.71.71,0,0,1,338.8,342.58Z"/><path class="cls-3_super-dad-99" d="M301.09,278.75l-.31,7.87s1.08,2.3,7.54.5,6.42-4.82,6.42-4.82l.23-14.7c0-.78-.35-8.37-.23-15.12-7.84-.12-14.86-.78-14.86-.78.77.76-2,.88-2,.88a11.69,11.69,0,0,0-3.71.57c-.46,4.52-2.74,17-2.2,19.66C293,277.81,301.09,278.75,301.09,278.75Z"/><path class="cls-2_super-dad-99" d="M304,288.45c-3,0-3.74-1.36-3.84-1.56a.8.8,0,0,1-.06-.3l.29-7.29c-2-.33-8.14-1.74-9.1-6.36-.4-1.89.52-8.12,1.33-13.62.36-2.47.71-4.8.85-6.24a.63.63,0,0,1,.42-.53,12.45,12.45,0,0,1,3.91-.61,6.85,6.85,0,0,0,1.43-.2.6.6,0,0,1,.07-.32.63.63,0,0,1,.6-.36c.07,0,7.08.66,14.81.78a.69.69,0,0,1,.45.2.61.61,0,0,1,.18.46c-.1,5.57.09,11.74.22,14.92v.16h0s0,.58-.24,14.74c0,.13,0,3.5-6.88,5.42A16.85,16.85,0,0,1,304,288.45Zm-2.61-2c.31.32,1.78,1.45,6.71.07,5.8-1.62,5.95-4.18,5.95-4.2s.24-14.5.24-14.7v-.13c-.12-3.08-.31-8.93-.23-14.36-6.1-.12-11.65-.55-13.56-.72-.16.29-.66.73-2.64.83a11.71,11.71,0,0,0-3.15.41c-.17,1.47-.48,3.62-.81,5.87-.72,4.86-1.7,11.51-1.35,13.18.93,4.5,8.51,5.43,8.58,5.44a.65.65,0,0,1,.57.66Z"/><path class="cls-3_super-dad-99" d="M301.61,265.19c-.84,1.49-1.68,3.27-1.24,3.75.82.89,3.09.3,3.09.3"/><path class="cls-2_super-dad-99" d="M302,270.14a2.82,2.82,0,0,1-2.1-.72c-.47-.51-.65-1.41,1.14-4.57a.7.7,0,0,1,.95-.27.71.71,0,0,1,.27,1c-1.37,2.42-1.27,3-1.27,3a3.86,3.86,0,0,0,2.33,0,.7.7,0,1,1,.35,1.35A6.9,6.9,0,0,1,302,270.14Z"/><path class="cls-3_super-dad-99" d="M310.45,282.7a8,8,0,0,0,2.48,3,16.82,16.82,0,0,0,6.94,3.12,16,16,0,0,0,9.53-.32c2.78-1.14,5.73-4,5.07-7.19a98.67,98.67,0,0,0-3.31-10.49c-3.48-10.53-5.26-26.78-18.32-29.2-9.83-1.82-16.24.55-20.25,5.65-4.89,6.21-3.13,14.61,6.09,10.59a9.18,9.18,0,0,0,5.15-6.08,16.06,16.06,0,0,0,5.15,6.89,10,10,0,0,1,2.22,2c2.71,3.86,1.33,9.39.31,13.59C310.69,277.68,309.39,280.17,310.45,282.7Z"/><path class="cls-2_super-dad-99" d="M324.51,290.12a21.48,21.48,0,0,1-4.79-.58,17.34,17.34,0,0,1-7.23-3.25,8.68,8.68,0,0,1-2.68-3.32h0c-.91-2.16-.3-4.22.4-6.6.21-.71.43-1.46.62-2.26l0-.16c1-4.15,2.25-9.31-.25-12.87a6.74,6.74,0,0,0-1.61-1.47l-.45-.34a16.72,16.72,0,0,1-4.66-5.58,9.92,9.92,0,0,1-4.94,4.85c-5.25,2.3-7.65.55-8.61-.7-2-2.58-1.28-7.19,1.69-11,4.45-5.66,11.49-7.65,20.93-5.91,11.16,2.07,14.31,13.53,17.09,23.64.59,2.15,1.15,4.17,1.76,6,.31.93.65,1.89,1,2.86a60.61,60.61,0,0,1,2.35,7.71c.71,3.47-2.23,6.64-5.5,8A13.5,13.5,0,0,1,324.51,290.12Zm-13.41-7.69a7.35,7.35,0,0,0,2.28,2.77,16,16,0,0,0,6.65,3,15.22,15.22,0,0,0,9.1-.29c2.67-1.09,5.21-3.7,4.65-6.39a58.71,58.71,0,0,0-2.29-7.54c-.35-1-.69-1.94-1-2.88-.62-1.89-1.18-3.93-1.78-6.1-2.67-9.71-5.7-20.72-16-22.63-9-1.67-15.42.1-19.58,5.39-2.54,3.23-3.26,7.2-1.69,9.24,1.23,1.6,3.7,1.7,6.95.28a8.48,8.48,0,0,0,4.75-5.61.71.71,0,0,1,.64-.53.66.66,0,0,1,.69.45,15.47,15.47,0,0,0,4.93,6.59l.43.32a8.16,8.16,0,0,1,1.93,1.79c2.86,4.08,1.48,9.82.46,14l0,.16c-.2.82-.42,1.59-.64,2.32C310.9,279,310.39,280.73,311.1,282.43Z"/><path class="cls-2_super-dad-99" d="M302.07,273.72h-.33c-3.15-.2-5.23-3.08-5.32-3.21a.7.7,0,0,1,1.14-.81s1.8,2.47,4.27,2.62a5.68,5.68,0,0,0,4.37-2.21.7.7,0,0,1,1,.95A7.08,7.08,0,0,1,302.07,273.72Z"/><path class="cls-2_super-dad-99" d="M301.09,278.75s5.24.06,7.23-1.73c0,0-1.94,2.55-7.54,5.85Z"/><path class="cls-2_super-dad-99" d="M300.78,283.56a.68.68,0,0,1-.69-.75l.3-4.11a.7.7,0,0,1,.7-.64h.12c1.47,0,5.22-.28,6.64-1.56a.7.7,0,0,1,1,.94c-.08.11-2.08,2.7-7.74,6A.73.73,0,0,1,300.78,283.56Zm1-4.12-.16,2.13a41.3,41.3,0,0,0,3.55-2.5A20.66,20.66,0,0,1,301.74,279.44Z"/><path class="cls-2_super-dad-99" d="M299.65,263.83a.68.68,0,0,1-.61-.37c-.39-.72-.81-1.13-1.17-1.15s-.91.51-1,.7a.7.7,0,0,1-1.16-.79,2.89,2.89,0,0,1,2.27-1.31c.89,0,1.68.68,2.33,1.89a.71.71,0,0,1-.28.95A.81.81,0,0,1,299.65,263.83Z"/><path class="cls-2_super-dad-99" d="M308,263.83a.7.7,0,0,1-.62-.37c-.39-.72-.8-1.13-1.16-1.15a1.58,1.58,0,0,0-1,.7.7.7,0,0,1-1,.18.69.69,0,0,1-.19-1,2.81,2.81,0,0,1,2.26-1.31c.9,0,1.68.68,2.34,1.89a.71.71,0,0,1-.29.95A.76.76,0,0,1,308,263.83Z"/><path class="cls-4_super-dad-99 targetColor" d="M325.05,325.07s11.07,34.62,14.29,44.46c0,0-33.13,14.72-55.15,3l4.51-50.16Z" style="fill: rgb(104, 225, 253);"/><path class="cls-2_super-dad-99" d="M315.53,325.61A105.41,105.41,0,0,1,293.05,323a.64.64,0,0,1-.48-.77.63.63,0,0,1,.76-.48c18.21,4,29.57,2.16,29.68,2.14a.64.64,0,0,1,.22,1.26A51.85,51.85,0,0,1,315.53,325.61Z"/><path class="cls-2_super-dad-99" d="M313.18,410.59v5.16s23.06,2.81,22.89,1.58-13.19-6.74-13.19-6.74Z"/><path class="cls-2_super-dad-99" d="M333.69,418.29a206.72,206.72,0,0,1-20.59-1.85.69.69,0,0,1-.61-.69v-5.16a.69.69,0,0,1,.69-.69h9.7a.87.87,0,0,1,.28.05c13.36,5.66,13.54,6.88,13.6,7.28a.94.94,0,0,1-.23.68C336.28,418.16,335.33,418.29,333.69,418.29Zm1.74-.71Zm-21.55-2.45c8.42,1,17.54,1.9,20.73,1.82a114.11,114.11,0,0,0-11.87-5.66h-8.86Z"/></g><g id="Dad_super-dad-99"><polygon class="cls-3_super-dad-99" points="241.03 380.19 247.28 403.42 263.95 403.42 261.31 376.75 241.03 380.19"/><path class="cls-2_super-dad-99" d="M264,404.14H247.28a.73.73,0,0,1-.7-.54l-6.25-23.23a.72.72,0,0,1,.09-.57.77.77,0,0,1,.49-.33L261.19,376a.76.76,0,0,1,.56.14.73.73,0,0,1,.28.5l2.64,26.67a.72.72,0,0,1-.72.8Zm-16.12-1.45h15.32l-2.48-25.1-18.73,3.18Z"/><path class="cls-2_super-dad-99" d="M246.26,399.64l17.28,1s23.47,14.66,21.75,15.81-37.28-.91-37.28-.91Z"/><path class="cls-2_super-dad-99" d="M279.43,417.5c-9.08,0-25.34-.89-31.46-1.25a.7.7,0,0,1-.65-.62l-1.75-15.91a.71.71,0,0,1,.19-.56.75.75,0,0,1,.55-.21l17.27,1a.75.75,0,0,1,.33.1c8.27,5.17,22.14,14.14,22.17,16.21a.89.89,0,0,1-.4.77C285.2,417.37,282.81,417.5,279.43,417.5Zm-30.79-2.61c12.57.72,32,1.59,35.77,1.09-1.86-2.07-11.73-8.78-21.09-14.63l-16.27-1Z"/><polygon class="cls-3_super-dad-99" points="209.9 380.19 204.68 403.42 188 403.42 190.98 376.75 209.9 380.19"/><path class="cls-2_super-dad-99" d="M204.68,404.14H188a.71.71,0,0,1-.53-.24.69.69,0,0,1-.18-.56l3-26.67a.71.71,0,0,1,.28-.5.76.76,0,0,1,.57-.14L210,379.48a.69.69,0,0,1,.48.31.77.77,0,0,1,.1.56l-5.23,23.22A.73.73,0,0,1,204.68,404.14Zm-15.87-1.45H204.1L209,380.76l-17.42-3.17Z"/><path class="cls-3_super-dad-99" d="M158.94,226.51c-1.35,9.68-2.91,19.41-6.42,28.53s-9.14,17.67-17.25,23.13a73.45,73.45,0,0,0,31.25,12,391.36,391.36,0,0,0,6.18-71.34q0-8.7-.48-17.4c-.21-4.28.9-14.28-1.31-18-3.22-5.35-5.73,3.78-7,7.84C160.55,202.42,160.55,215,158.94,226.51Z"/><path class="cls-2_super-dad-99" d="M166.52,290.87h-.1a74.12,74.12,0,0,1-31.55-12.1.72.72,0,0,1-.32-.6.7.7,0,0,1,.32-.59c9.15-6.17,14.29-15.8,17-22.79,3.49-9.08,5.07-19,6.38-28.37h0c.52-3.74.88-7.68,1.23-11.49.73-8,1.48-16.27,3.79-23.84l.18-.61c1.44-4.77,2.92-9.07,5.25-9.36,1-.14,2,.53,2.85,2,1.72,2.86,1.56,8.94,1.44,13.83-.05,1.78-.09,3.33,0,4.47.29,5.76.45,11.62.48,17.43a392,392,0,0,1-6.19,71.47A.73.73,0,0,1,166.52,290.87Zm-30-12.71a72.72,72.72,0,0,0,29.37,11.17,390.73,390.73,0,0,0,6-70.53c0-5.78-.19-11.62-.48-17.36-.06-1.19,0-2.76,0-4.58.11-4.45.26-10.55-1.24-13-.53-.87-1-1.34-1.43-1.28-1.59.2-3.31,5.9-4,8.34l-.19.62c-2.26,7.43-3,15.62-3.73,23.55-.35,3.83-.71,7.79-1.24,11.56h0c-1.32,9.46-2.91,19.47-6.46,28.69C149.38,265.2,143.64,273.08,136.56,278.16Zm22.38-51.65h0Z"/><polygon class="cls-2_super-dad-99" points="194.79 230.3 185.74 391.51 210.58 391.51 225.92 276.37 225.92 226.68 194.79 230.3"/><path class="cls-2_super-dad-99" d="M210.58,392.21H185.74a.68.68,0,0,1-.5-.22.62.62,0,0,1-.19-.51l9-161.22a.71.71,0,0,1,.62-.66L225.84,226a.67.67,0,0,1,.54.17.68.68,0,0,1,.23.52v49.69L211.27,391.61A.69.69,0,0,1,210.58,392.21Zm-24.1-1.39H210l15.26-114.54V227.46l-29.77,3.46Z"/><polygon class="cls-2_super-dad-99" points="256.2 230.3 265.25 391.51 240.41 391.51 225.07 276.37 225.07 226.68 256.2 230.3"/><path class="cls-2_super-dad-99" d="M265.25,392.21H240.4a.7.7,0,0,1-.69-.6L224.38,276.46V226.68a.69.69,0,0,1,.24-.52.67.67,0,0,1,.54-.17l31.13,3.61a.71.71,0,0,1,.62.66l9,161.22a.69.69,0,0,1-.19.51A.68.68,0,0,1,265.25,392.21ZM241,390.82h23.5l-9-159.9-29.77-3.46v48.91Z"/><path class="cls-3_super-dad-99" d="M166.61,209.16s22.65,21,23.86,22.92c.95,1.51,2.44,2.67,3.18,4.32s-.81,13.39-1.66,18a4.29,4.29,0,0,1-.7,1.94c-.88,1.12-2.58,1.12-4,.79a13.21,13.21,0,0,1-5.86-3.16c-.62-.58-1.19-1.59-.59-2.18a1.7,1.7,0,0,1,1.42-.28l2.69.27a8.54,8.54,0,0,1-3.21-4.76,6.12,6.12,0,0,1,1.34-5.46c-1.49-1.1-7.08-5.8-8.56-7.12-2.95-2.62-6-5.15-8.91-7.82L154,216Z"/><path class="cls-2_super-dad-99" d="M188.85,258.08a7.37,7.37,0,0,1-1.69-.21,13.91,13.91,0,0,1-6.19-3.33,3.21,3.21,0,0,1-1.06-2.06,1.55,1.55,0,0,1,.46-1.16,2.4,2.4,0,0,1,2-.49l.59.06a8.64,8.64,0,0,1-1.88-3.67,7,7,0,0,1,1-5.5c-2-1.6-6.66-5.5-8-6.7q-1.79-1.59-3.62-3.16c-1.75-1.51-3.56-3.08-5.3-4.67l-11.66-10.7a.72.72,0,0,1,.15-1.17l12.62-6.8a.73.73,0,0,1,.83.11c2.33,2.15,22.76,21.1,24,23.07a14,14,0,0,0,1.31,1.69,10.89,10.89,0,0,1,1.91,2.72c.86,1.93-.94,14.81-1.61,18.46a5,5,0,0,1-.84,2.26A3.69,3.69,0,0,1,188.85,258.08Zm-7-5.84a.65.65,0,0,0-.43.1,1.57,1.57,0,0,0,.57,1.14,12.21,12.21,0,0,0,5.53,3c.72.18,2.45.46,3.23-.53a3.6,3.6,0,0,0,.56-1.62c1-5.45,2.24-16.41,1.71-17.61a9.61,9.61,0,0,0-1.68-2.37,16.92,16.92,0,0,1-1.45-1.87c-.84-1.34-14.28-14-23.36-22.42l-11.27,6.07,10.91,10c1.72,1.58,3.53,3.13,5.27,4.64q1.83,1.57,3.63,3.17c1.49,1.33,7,6,8.51,7.08a.72.72,0,0,1,.1,1.07,5.36,5.36,0,0,0-1.16,4.81,7.79,7.79,0,0,0,2.94,4.35.73.73,0,0,1,.23.84.74.74,0,0,1-.75.45l-2.68-.27A3.68,3.68,0,0,0,181.82,252.24Z"/><path class="cls-3_super-dad-99" d="M285.07,209.16s-22.65,21-23.86,22.92c-.95,1.51-2.44,2.67-3.18,4.32s.81,13.39,1.66,18a4.29,4.29,0,0,0,.7,1.94c.88,1.12,2.58,1.12,4,.79a13.21,13.21,0,0,0,5.86-3.16c.62-.58,1.18-1.59.59-2.18a1.7,1.7,0,0,0-1.42-.28l-2.69.27a8.54,8.54,0,0,0,3.21-4.76,6.12,6.12,0,0,0-1.34-5.46c1.49-1.1,7.08-5.8,8.56-7.12,2.95-2.62,6-5.15,8.91-7.82L297.69,216Z"/><path class="cls-2_super-dad-99" d="M262.83,258.08a3.69,3.69,0,0,1-3-1.25,5,5,0,0,1-.84-2.26c-.67-3.65-2.47-16.53-1.61-18.46a10.89,10.89,0,0,1,1.91-2.72,14,14,0,0,0,1.31-1.69c1.23-2,21.66-20.92,24-23.07a.73.73,0,0,1,.83-.11l12.62,6.8a.72.72,0,0,1,.15,1.17l-11.66,10.7c-1.74,1.59-3.55,3.16-5.3,4.67q-1.83,1.57-3.62,3.16c-1.35,1.2-6,5.1-8,6.7a7,7,0,0,1,1,5.5,8.75,8.75,0,0,1-1.88,3.67l.59-.06a2.41,2.41,0,0,1,2,.49,1.55,1.55,0,0,1,.46,1.16,3.21,3.21,0,0,1-1.06,2.06,13.91,13.91,0,0,1-6.19,3.33A7.43,7.43,0,0,1,262.83,258.08Zm22.35-48c-9.08,8.41-22.52,21.08-23.36,22.42a16.92,16.92,0,0,1-1.45,1.87,9.61,9.61,0,0,0-1.68,2.37c-.53,1.2.71,12.16,1.71,17.61a3.6,3.6,0,0,0,.56,1.62c.8,1,2.67.67,3.22.53a12.19,12.19,0,0,0,5.54-3,1.88,1.88,0,0,0,.61-1c-.18-.26-.69-.21-.88-.19l-2.68.27a.74.74,0,0,1-.75-.45.73.73,0,0,1,.23-.84,7.79,7.79,0,0,0,2.94-4.35,5.36,5.36,0,0,0-1.16-4.81.72.72,0,0,1,.1-1.07c1.47-1.09,7-5.75,8.51-7.08q1.8-1.59,3.63-3.17c1.74-1.51,3.55-3.06,5.27-4.64l10.91-10Z"/><path class="cls-4_super-dad-99 targetColor" d="M134.38,197.45c2.52-6.16,40.59-49,51.79-54.3s38.28-1.49,38.28-1.49h3.06s27.08-3.83,38.28,1.49,49.26,48.14,51.78,54.3-40.5,41.07-40.5,41.07l-11.83-11.84,26.58-29.51L271.67,187.1s-12,31.91-13.16,48.7H193.45c-1.12-16.79-13.16-48.7-13.16-48.7l-20.15,10.07,24.75,26.41L173,238.52S131.87,203.61,134.38,197.45Z" style="fill: rgb(104, 225, 253);"/><path class="cls-3_super-dad-99" d="M281.53,150.74c21.51,14.37,43.3,28.39,66.42,40,5.33,2.66,11.22,5.27,17.05,4.05a42.35,42.35,0,0,1-32.64,9.33,48.32,48.32,0,0,1-29.92-16.54c-3.21-3.74-6-8-10.18-10.61-3.07-1.89-6.66-2.7-10-4a36.31,36.31,0,0,1-15.74-11.86c-2.91-3.86-5.09-8.34-8.7-11.56-4.82-4.29-9.56-3.34-15.08-1.56-3.78,1.21-8.94,1.8-12.33,3.95,0,0,7.76-4.93,7.4-9.43a49,49,0,0,1,0-8c.07-.67,15.9,2,16.93,2.21,8.12,1.86,15.61,6.56,22.5,11.17Z"/><path class="cls-2_super-dad-99" d="M337.89,205.19a42.47,42.47,0,0,1-5.63-.37A49.16,49.16,0,0,1,301.89,188c-.77-.9-1.52-1.83-2.26-2.76-2.29-2.86-4.66-5.81-7.75-7.71a32,32,0,0,0-6.69-2.81c-1.08-.36-2.16-.72-3.22-1.13a36.73,36.73,0,0,1-16.05-12.11c-1-1.32-1.92-2.72-2.81-4.08a36,36,0,0,0-5.8-7.37c-4.61-4.11-9.06-3.13-14.38-1.42-1.25.4-2.61.73-4.05,1.07-2.91.7-5.92,1.42-8.11,2.81h0a.71.71,0,0,1-1-.22.72.72,0,0,1,.22-1c.07,0,7.39-4.76,7.07-8.76a50.07,50.07,0,0,1,0-8.14.84.84,0,0,1,.33-.56c1.17-.85,17.32,2.1,17.48,2.14,8.29,1.89,15.78,6.61,22.74,11.27l4.32,2.89h0c19.42,13,42.17,27.82,66.35,39.93,5.31,2.66,11,5.17,16.58,4a.72.72,0,0,1,.61,1.26A42.85,42.85,0,0,1,337.89,205.19ZM250.1,145.75a11.8,11.8,0,0,1,8.17,3.23,37.05,37.05,0,0,1,6.05,7.66c.88,1.34,1.78,2.72,2.75,4a35.77,35.77,0,0,0,15.42,11.63c1,.4,2.1.76,3.16,1.11a33.6,33.6,0,0,1,7,3c3.3,2,5.75,5.08,8.11,8,.74.92,1.47,1.84,2.23,2.73a47.74,47.74,0,0,0,29.47,16.3,42.06,42.06,0,0,0,30.11-7.6c-5.17.17-10.38-2.15-14.93-4.43-24.26-12.15-47.05-27-66.5-40l-4.33-2.89c-6.84-4.59-14.2-9.22-22.25-11.07-1.5-.34-13.51-2.27-16.09-2.3a50.45,50.45,0,0,0,0,7.34c.2,2.47-1.64,4.93-3.59,6.82,1.19-.35,2.42-.64,3.63-.93,1.42-.34,2.75-.66,4-1A25.1,25.1,0,0,1,250.1,145.75Z"/><path class="cls-3_super-dad-99" d="M174.32,151.91a30.05,30.05,0,0,1,17.36-6.73c10.59-.56,28.62,6.73,28.62,6.73s-6.07-4.35-5.72-8.86.66-8.86.66-8.86-18.28.8-28.92,6.14S174.32,151.91,174.32,151.91Z"/><path class="cls-2_super-dad-99" d="M220.3,152.64a.63.63,0,0,1-.27-.06c-.18-.07-18-7.23-28.31-6.68a29.6,29.6,0,0,0-16.91,6.55.72.72,0,0,1-1.19-.69c.06-.27,1.56-6.65,12.38-12.08,10.65-5.35,28.46-6.17,29.21-6.21a.76.76,0,0,1,.55.22.71.71,0,0,1,.2.55s-.3,4.36-.66,8.87c-.32,4,5.36,8.18,5.42,8.22a.72.72,0,0,1-.42,1.31Zm-27.41-8.22c7.79,0,18.55,3.47,24.08,5.47-1.63-1.78-3.31-4.28-3.11-6.89.27-3.33.5-6.57.6-8-3.63.23-18.69,1.44-27.81,6-6.06,3.05-9,6.39-10.43,8.61a31,31,0,0,1,15.42-5.12C192.05,144.43,192.46,144.42,192.89,144.42Z"/><path class="cls-3_super-dad-99" d="M244.86,108.18s5.7-13.81,2.91-17.1-4.43-1.9-4.43-1.9,2.79-2.4-1.39-6-19.75-5.69-27.72-2.4l1.54,2.66s-6.22,1.26-7,1.89l3.61,1.9s-1.72.64-3.61,4.31,1.06,21.72,1.06,21.72S239.8,115.54,244.86,108.18Z"/><path class="cls-2_super-dad-99" d="M219.67,114.36c-5.31,0-9.42-.29-9.87-.33a.7.7,0,0,1-.66-.6c-.31-1.87-2.95-18.4-1-22.18A13,13,0,0,1,211,87.36L208.45,86a.72.72,0,0,1-.13-1.19c.7-.58,4.14-1.38,6.32-1.85l-1-1.79a.76.76,0,0,1-.06-.59.74.74,0,0,1,.41-.44c8.12-3.35,23.9-1.36,28.47,2.52,1.69,1.44,2.55,2.9,2.55,4.37a3.39,3.39,0,0,1-.18,1.15,6.1,6.1,0,0,1,3.53,2.41c3,3.53-2.19,16.39-2.79,17.85a.54.54,0,0,1-.07.13C242.11,113.45,229,114.36,219.67,114.36Zm-9.2-1.73c8.59.58,29.77.77,33.75-4.79,2.14-5.2,4.81-14.15,3-16.29s-3-2.1-3.43-1.8a.73.73,0,0,1-1-.13.72.72,0,0,1,.08-1,2.24,2.24,0,0,0,.66-1.6c0-1-.72-2.12-2.05-3.25-3.6-3-18.08-5.41-26.2-2.58l1.11,1.92a.7.7,0,0,1,0,.66.69.69,0,0,1-.51.41c-1.91.39-4,.9-5.39,1.29l2.21,1.16a.73.73,0,0,1,.39.69.74.74,0,0,1-.47.63s-1.52.66-3.22,4C208,94.65,209.63,107.29,210.47,112.63Zm34.39-4.45h0Z"/><path class="cls-3_super-dad-99" d="M239,110.48c.93-5.83,10.6-7.26,10.12-.39a10.08,10.08,0,0,1-2.58,6.44,6,6,0,0,1-6.48,1.52"/><path class="cls-2_super-dad-99" d="M242.09,119.19a5.69,5.69,0,0,1-2.31-.48.72.72,0,0,1,.59-1.32,5.31,5.31,0,0,0,5.68-1.36,9.46,9.46,0,0,0,2.37-6c.15-2.19-.86-3.57-2.77-3.79a5.53,5.53,0,0,0-5.92,4.35.72.72,0,0,1-1.43-.23,6.93,6.93,0,0,1,7.51-5.56c2.12.25,4.3,1.77,4.05,5.33a10.85,10.85,0,0,1-2.78,6.9A7.12,7.12,0,0,1,242.09,119.19Z"/><path class="cls-3_super-dad-99" d="M214.92,110.48c-.93-5.83-10.6-7.26-10.12-.39a10.12,10.12,0,0,0,2.57,6.44,6,6,0,0,0,6.49,1.52"/><path class="cls-2_super-dad-99" d="M211.85,119.19a7.11,7.11,0,0,1-5-2.15,10.9,10.9,0,0,1-2.78-6.9c-.25-3.56,1.92-5.08,4-5.33a6.94,6.94,0,0,1,7.51,5.56.72.72,0,0,1-.6.82.71.71,0,0,1-.83-.59,5.54,5.54,0,0,0-5.92-4.35c-1.91.22-2.93,1.6-2.77,3.79a9.46,9.46,0,0,0,2.37,6,5.29,5.29,0,0,0,5.67,1.36.73.73,0,0,1,1,.37.72.72,0,0,1-.37.95A5.61,5.61,0,0,1,211.85,119.19Z"/><path class="cls-3_super-dad-99" d="M215.77,139.59s2.61,5.7,10.25,5.7a12.32,12.32,0,0,0,10.73-5.7l-.33-4.07-.74-9.47L235,117.2H217.54l-.58,7.24-.17,2.34Z"/><path class="cls-2_super-dad-99" d="M226,146c-8,0-10.79-5.87-10.91-6.12a.74.74,0,0,1-.06-.36l1.77-22.39a.73.73,0,0,1,.72-.66H235a.73.73,0,0,1,.72.66l1.78,22.39a.75.75,0,0,1-.09.41A12.94,12.94,0,0,1,226,146Zm-9.52-6.57c.48.9,3.08,5.13,9.52,5.13a11.6,11.6,0,0,0,10-5.15l-1.71-21.5H218.21Z"/><path class="cls-2_super-dad-99" d="M216.79,126.78a15.46,15.46,0,0,0,5.72,5c3.75,2.08,9.36,4.41,13.91,3.72l-.74-9.47a43.2,43.2,0,0,1-10.05.07,29.06,29.06,0,0,1-8.67-1.68Z"/><path class="cls-2_super-dad-99" d="M234.69,136.34c-4.67,0-9.72-2.38-12.52-3.93a16.08,16.08,0,0,1-6-5.26.75.75,0,0,1-.1-.42l.18-2.35a.69.69,0,0,1,.33-.54.73.73,0,0,1,.63,0,28,28,0,0,0,8.46,1.63,41.31,41.31,0,0,0,9.89-.06.69.69,0,0,1,.79.63l.75,9.47a.7.7,0,0,1-.59.75A12.45,12.45,0,0,1,234.69,136.34Zm-17.19-9.73a14.85,14.85,0,0,0,5.35,4.58c2.32,1.29,8.07,4.13,12.83,3.71l-.64-8.07a44.71,44.71,0,0,1-9.48,0,32.17,32.17,0,0,1-8-1.39Z"/><path class="cls-3_super-dad-99" d="M225.75,128.28h1.55a13.35,13.35,0,0,0,13.35-13.35V93.79L225.28,97.6,212.4,93.79v21.14A13.35,13.35,0,0,0,225.75,128.28Z"/><path class="cls-2_super-dad-99" d="M227.3,129h-1.55a14.09,14.09,0,0,1-14.08-14.07V93.79a.73.73,0,0,1,.29-.58.7.7,0,0,1,.64-.11l12.7,3.75,15.18-3.76a.69.69,0,0,1,.62.13.72.72,0,0,1,.28.57v21.14A14.09,14.09,0,0,1,227.3,129ZM213.12,94.76v20.17a12.64,12.64,0,0,0,12.63,12.63h1.55a12.64,12.64,0,0,0,12.63-12.63V94.71L225.46,98.3a.7.7,0,0,1-.38,0Z"/><path class="cls-2_super-dad-99" d="M226.23,118.4a17,17,0,0,1-2-.11,1.26,1.26,0,0,1-.91-.61c-1-1.74,1.36-8.36,2.13-10.34a.73.73,0,0,1,.93-.42.71.71,0,0,1,.41.93c-1.58,4.12-2.59,8.16-2.26,9a16.77,16.77,0,0,0,3.57,0,.73.73,0,0,1,.18,1.44S227.39,118.4,226.23,118.4Zm-1.63-1.46h0Z"/><path class="cls-2_super-dad-99" d="M226.93,122.93c-5.43,0-9.75-5-9.94-5.26a.72.72,0,0,1,.09-1,.71.71,0,0,1,1,.09s4.25,4.94,9.16,4.74c2.63-.12,5-1.7,7.13-4.69a.71.71,0,0,1,1-.18.72.72,0,0,1,.18,1c-2.38,3.38-5.15,5.17-8.25,5.3Z"/><path class="cls-2_super-dad-99" d="M221.85,105.27a.7.7,0,0,1-.48-.18,2.27,2.27,0,0,0-3.31,0,.72.72,0,0,1-1-1,3.67,3.67,0,0,1,5.3,0,.73.73,0,0,1,.07,1A.75.75,0,0,1,221.85,105.27Z"/><path class="cls-2_super-dad-99" d="M234.35,105.27a.74.74,0,0,1-.48-.18,2.26,2.26,0,0,0-3.3,0,.72.72,0,0,1-1,0,.71.71,0,0,1,0-1,3.67,3.67,0,0,1,5.3,0,.72.72,0,0,1-.48,1.26Z"/><path class="cls-2_super-dad-99" d="M271.67,187.82a.7.7,0,0,1-.52-.22.72.72,0,0,1,0-1,22.64,22.64,0,0,0,5.21-8.92.73.73,0,0,1,.89-.5.72.72,0,0,1,.5.89,23.9,23.9,0,0,1-5.59,9.56A.7.7,0,0,1,271.67,187.82Z"/><path class="cls-2_super-dad-99" d="M180.29,187.82a.69.69,0,0,1-.47-.18c-.12-.1-2.94-2.62-5.62-11.93a.72.72,0,0,1,1.39-.4c2.54,8.8,5.15,11.22,5.18,11.24a.74.74,0,0,1,.06,1A.72.72,0,0,1,180.29,187.82Z"/><path class="cls-2_super-dad-99" d="M220.3,153.63l4.23,4.45s-3.23,31.34-27.22,43.44l-2,17.21,19.23-3.35s15.44-32,12.54-58l3.26-3.74-4.46-4.85Z"/><path class="cls-2_super-dad-99" d="M225.73,154.34a10.75,10.75,0,0,1-5.86-1.85.72.72,0,0,1-.16-1,.73.73,0,0,1,1-.16,8.15,8.15,0,0,0,10.86-1.16.72.72,0,1,1,1,1A9.4,9.4,0,0,1,225.73,154.34Z"/><path class="cls-2_super-dad-99" d="M205.69,399.64l-17.27,1s-23.48,14.66-21.76,15.81,37.28-.91,37.28-.91Z"/><path class="cls-2_super-dad-99" d="M172.53,417.5c-3.39,0-5.77-.13-6.26-.45a.92.92,0,0,1-.4-.77c0-2.07,13.91-11,22.18-16.21a.75.75,0,0,1,.32-.1l17.28-1a.69.69,0,0,1,.54.21.65.65,0,0,1,.19.56l-1.74,15.91a.71.71,0,0,1-.66.62C197.87,416.61,181.6,417.5,172.53,417.5Zm-5-1.5c3.61.48,23.17-.38,35.78-1.11l1.6-14.5-16.28,1C179.26,407.21,169.36,413.93,167.53,416Z"/><path class="cls-3_super-dad-99" d="M192.43,273.08h0a.72.72,0,0,1-.7-.74l1-36.56a.74.74,0,0,1,.74-.7.72.72,0,0,1,.7.74l-1,36.56A.72.72,0,0,1,192.43,273.08Z"/><path class="cls-3_super-dad-99" d="M198.35,254.8a.72.72,0,0,1-.22-1.41c6.51-2.12,7-13.35,7-13.46a.76.76,0,0,1,.74-.7.72.72,0,0,1,.7.75c0,.5-.52,12.36-8,14.79A.91.91,0,0,1,198.35,254.8Z"/><path class="cls-3_super-dad-99" d="M255,254.8a.91.91,0,0,1-.23,0c-7.45-2.43-7.95-14.29-8-14.79a.73.73,0,0,1,.7-.75h0a.72.72,0,0,1,.72.7c0,.11.48,11.35,7,13.46a.72.72,0,0,1-.22,1.41Z"/><path class="cls-3_super-dad-99" d="M226,273.08a.73.73,0,0,1-.73-.72V240a.73.73,0,0,1,.73-.72.72.72,0,0,1,.72.72v32.41A.72.72,0,0,1,226,273.08Z"/></g></svg>